<svg width="24" height="37" viewBox="0 0 24 37" fill="none" xmlns="http://www.w3.org/2000/svg">
<path d="M11.95 25.8C11.3833 25.8 10.9167 25.6 10.55 25.2C10.2167 24.8 10.05 24.25 10.05 23.55C10.05 21.7167 10.3833 20.1667 11.05 18.9C11.7167 17.6333 12.6833 16.25 13.95 14.75C14.95 13.55 15.6833 12.55 16.15 11.75C16.6167 10.95 16.85 10.05 16.85 9.05C16.85 7.95 16.4333 7.08333 15.6 6.45C14.8 5.78333 13.7 5.45 12.3 5.45C11.1 5.45 9.95 5.71667 8.85 6.25C7.75 6.75 6.46667 7.48333 5 8.45C4.16667 8.91667 3.48333 9.15 2.95 9.15C2.38333 9.15 1.88333 8.9 1.45 8.4C1.05 7.86667 0.85 7.25 0.85 6.55C0.85 5.58333 1.25 4.8 2.05 4.2C3.45 3 5.1 2.06666 7 1.4C8.9 0.699998 10.8167 0.349997 12.75 0.349997C14.7833 0.349997 16.5833 0.699998 18.15 1.4C19.75 2.1 20.9833 3.06667 21.85 4.3C22.75 5.53333 23.2 6.95 23.2 8.55C23.2 10.2833 22.7833 11.8 21.95 13.1C21.1167 14.3667 19.9 15.8 18.3 17.4C16.9333 18.8 15.9 19.9833 15.2 20.95C14.5333 21.8833 14.1167 22.95 13.95 24.15C13.85 24.6833 13.6167 25.1 13.25 25.4C12.9167 25.6667 12.4833 25.8 11.95 25.8ZM12.05 36.3C10.9833 36.3 10.1 35.95 9.4 35.25C8.7 34.5167 8.35 33.6167 8.35 32.55C8.35 31.4833 8.7 30.6 9.4 29.9C10.1 29.1667 10.9833 28.8 12.05 28.8C13.1167 28.8 14 29.1667 14.7 29.9C15.4 30.6 15.75 31.4833 15.75 32.55C15.75 33.6167 15.3833 34.5167 14.65 35.25C13.95 35.95 13.0833 36.3 12.05 36.3Z" fill="white"/>
</svg>